<!-- Generated by IcoMoon.io -->
<svg version="1.1" xmlns="http://www.w3.org/2000/svg" width="768" height="768" viewBox="0 0 768 768">
<title></title>
<g id="icomoon-ignore">
</g>
<path fill="rgb(37, 99, 235)" d="M416 256c26.496 0 50.56 10.784 67.872 28.128s28.128 41.376 28.128 67.872v288c0 26.496-10.784 50.56-28.128 67.872s-41.376 28.128-67.872 28.128h-288c-26.496 0-50.56-10.784-67.872-28.128s-28.128-41.376-28.128-67.872v-288c0-26.496 10.784-50.56 28.128-67.872s41.376-28.128 67.872-28.128zM416 320h-288c-8.832 0-16.8 3.552-22.624 9.376s-9.376 13.792-9.376 22.624v288c0 8.832 3.552 16.8 9.376 22.624s13.792 9.376 22.624 9.376h288c8.832 0 16.8-3.552 22.624-9.376s9.376-13.792 9.376-22.624v-288c0-8.832-3.552-16.8-9.376-22.624s-13.792-9.376-22.624-9.376zM608 448h32c8.832 0 16.8-3.552 22.624-9.376s9.376-13.792 9.376-22.624v-288c0-8.832-3.552-16.8-9.376-22.624s-13.792-9.376-22.624-9.376h-288c-8.832 0-16.8 3.552-22.624 9.376s-9.376 13.792-9.376 22.624v32c0 17.664-14.336 32-32 32s-32-14.336-32-32v-32c0-26.496 10.784-50.56 28.128-67.872s41.376-28.128 67.872-28.128h288c26.496 0 50.56 10.784 67.872 28.128s28.128 41.376 28.128 67.872v288c0 26.496-10.784 50.56-28.128 67.872s-41.376 28.128-67.872 28.128h-32c-17.664 0-32-14.336-32-32s14.336-32 32-32z"></path>
</svg>
