<svg width="260" height="169" viewBox="0 0 260 169" fill="none" xmlns="http://www.w3.org/2000/svg">
    <g clip-path="url(#clip0)">
        <path fill-rule="evenodd" clip-rule="evenodd"
              d="M142.841 148.824C140.756 148.94 138.641 149 136.5 149C130.177 149 124.077 148.48 118.336 147.515C111.402 158.254 91.7098 166 68.5 166C39.5051 166 16 153.912 16 139C16 124.088 39.5051 112 68.5 112C70.801 112 73.0675 112.076 75.2904 112.224C78.3131 95.2598 104.564 82 136.5 82C168.673 82 195.076 95.4573 197.773 112.602C215.466 116.021 228 124.536 228 134.5C228 147.479 206.734 158 180.5 158C165.164 158 151.526 154.404 142.841 148.824Z"
              fill="black" fill-opacity="0.3"/>
        <mask id="path-2-inside-1" fill="white">
            <path fill-rule="evenodd" clip-rule="evenodd"
                  d="M191.822 92.457C183.768 79.158 164.941 69.8286 143 69.8286C121.059 69.8286 102.232 79.158 94.1783 92.457H90V106.914V107.543H90.0075C90.4869 127.735 114.029 144 143 144C171.971 144 195.513 127.735 195.993 107.543H196V106.914V92.457H191.822Z"/>
        </mask>
        <path fill-rule="evenodd" clip-rule="evenodd"
              d="M191.822 92.457C183.768 79.158 164.941 69.8286 143 69.8286C121.059 69.8286 102.232 79.158 94.1783 92.457H90V106.914V107.543H90.0075C90.4869 127.735 114.029 144 143 144C171.971 144 195.513 127.735 195.993 107.543H196V106.914V92.457H191.822Z"
              fill="#263246"/>
        <path
            d="M143 69.8286V65.8286V69.8286ZM191.822 92.457L188.4 94.5289L189.568 96.457H191.822V92.457ZM94.1783 92.457V96.457H96.4323L97.5998 94.5289L94.1783 92.457ZM90 92.457V88.457H86V92.457H90ZM90 107.543H86V111.543H90V107.543ZM90.0075 107.543L94.0063 107.448L93.9136 103.543H90.0075V107.543ZM195.993 107.543V103.543H192.086L191.994 107.448L195.993 107.543ZM196 107.543V111.543H200V107.543H196ZM196 92.457H200V88.457H196V92.457ZM143 73.8286C164.009 73.8286 181.285 82.7787 188.4 94.5289L195.243 90.3851C186.252 75.5374 165.873 65.8286 143 65.8286V73.8286ZM97.5998 94.5289C104.715 82.7787 121.991 73.8286 143 73.8286V65.8286C120.127 65.8286 99.7478 75.5374 90.7567 90.3851L97.5998 94.5289ZM90 96.457H94.1783V88.457H90V96.457ZM94 106.914V92.457H86V106.914H94ZM94 107.543V106.914H86V107.543H94ZM90.0075 103.543H90V111.543H90.0075V103.543ZM143 140C129.228 140 116.912 136.128 108.089 130.049C99.249 123.96 94.2072 115.909 94.0063 107.448L86.0086 107.638C86.2871 119.368 93.2561 129.546 103.55 136.637C113.86 143.74 127.801 148 143 148V140ZM191.994 107.448C191.793 115.909 186.751 123.96 177.911 130.049C169.088 136.128 156.772 140 143 140V148C158.199 148 172.14 143.74 182.45 136.637C192.744 129.546 199.713 119.368 199.991 107.638L191.994 107.448ZM196 103.543H195.993V111.543H196V103.543ZM192 106.914V107.543H200V106.914H192ZM192 92.457V106.914H200V92.457H192ZM191.822 96.457H196V88.457H191.822V96.457Z"
            fill="#354662" mask="url(#path-2-inside-1)"/>
        <path
            d="M104.5 127.231L104.512 116.711L111.452 121.111L111.5 132.212C111.5 132.212 109.083 130.932 107.666 129.911C106.352 128.963 104.5 127.231 104.5 127.231Z"
            fill="#586D91"/>
        <path
            d="M143 58C157.276 58 170.114 62.0521 179.33 68.5008C188.552 74.9539 194 83.6768 194 93.0857C194 102.495 188.552 111.217 179.33 117.671C170.114 124.119 157.276 128.171 143 128.171C128.724 128.171 115.886 124.119 106.67 117.671C97.4476 111.217 92 102.495 92 93.0857C92 83.6768 97.4476 74.9539 106.67 68.5008C115.886 62.0521 128.724 58 143 58Z"
            fill="#1F2633" stroke="#354662" stroke-width="4"/>
        <path d="M178.333 131.429V117.601L168.869 122.001V137.086L178.333 131.429Z" fill="#354662"/>
        <path d="M163.822 138.343V124.515L158.774 126.401V139.601L163.822 138.343Z" fill="#354662"/>
        <path
            d="M153.974 98.2077C149.853 98.2077 146.607 97.8355 144.236 97.0909C141.837 96.3464 139.762 95.1394 138.012 93.4698C136.262 91.8003 134.667 90.5368 133.228 89.6795C131.76 88.7996 130.151 88.3597 128.401 88.3597C124.139 88.3597 122.008 89.8262 122.008 92.7591C122.008 94.1128 122.629 95.2071 123.871 96.0418C125.113 96.8766 126.792 97.3165 128.909 97.3617L128.909 108.8C123.264 108.755 118.875 107.334 115.742 104.536C112.581 101.739 111 97.8129 111 92.7591C111 87.728 112.454 83.8361 115.361 81.0836C118.268 78.3086 122.403 76.921 127.766 76.921C130.109 76.921 132.24 77.2933 134.159 78.0378C136.079 78.7824 138.04 79.9781 140.044 81.6251L144.575 85.5169C145.901 86.6224 147.27 87.3895 148.681 87.8182C150.065 88.2469 151.829 88.4838 153.974 88.5289L153.974 98.2077ZM166.845 99.5952C164.756 99.5952 163.048 98.9974 161.722 97.8016C160.367 96.5833 159.69 95.0717 159.69 93.2668C159.69 91.4619 160.367 89.9615 161.722 88.7658C163.048 87.5475 164.756 86.9383 166.845 86.9383C168.933 86.9383 170.655 87.5475 172.01 88.7658C173.337 89.9615 174 91.4619 174 93.2668C174 95.0717 173.337 96.5833 172.01 97.8016C170.655 98.9974 168.933 99.5952 166.845 99.5952Z"
            fill="#263246"/>
        <path
            d="M153.974 95.215C149.853 95.215 146.607 94.8428 144.236 94.0983C141.837 93.3537 139.762 92.1467 138.012 90.4772C136.262 88.8076 134.667 87.5442 133.228 86.6868C131.76 85.8069 130.151 85.367 128.401 85.367C124.139 85.367 122.008 86.8335 122.008 89.7665C122.008 91.1202 122.629 92.2144 123.871 93.0491C125.113 93.8839 126.792 94.3239 128.909 94.369L128.909 105.808C123.264 105.762 118.875 104.341 115.742 101.544C112.581 98.7459 111 94.8202 111 89.7665C111 84.7353 112.454 80.8434 115.361 78.0909C118.268 75.3159 122.403 73.9284 127.766 73.9284C130.109 73.9284 132.24 74.3006 134.159 75.0452C136.079 75.7897 138.04 76.9854 140.044 78.6324L144.575 82.5243C145.901 83.6298 147.27 84.3969 148.681 84.8255C150.065 85.2542 151.829 85.4911 153.974 85.5362L153.974 95.215ZM166.845 96.6026C164.756 96.6026 163.048 96.0047 161.722 94.8089C160.367 93.5906 159.69 92.079 159.69 90.2741C159.69 88.4692 160.367 86.9689 161.722 85.7731C163.048 84.5548 164.756 83.9456 166.845 83.9456C168.933 83.9456 170.655 84.5548 172.01 85.7731C173.337 86.9689 174 88.4692 174 90.2741C174 92.079 173.337 93.5906 172.01 94.8089C170.655 96.0047 168.933 96.6026 166.845 96.6026Z"
            fill="#354662"/>
        <mask id="path-9-inside-2" fill="white">
            <path fill-rule="evenodd" clip-rule="evenodd"
                  d="M198.822 71.457C190.768 58.158 171.941 48.8286 150 48.8286C128.059 48.8286 109.232 58.158 101.178 71.457H97V85.9143V86.5427H97.0075C97.4869 106.735 121.029 123 150 123C178.971 123 202.513 106.735 202.993 86.5427H203V85.9143V71.457H198.822Z"/>
        </mask>
        <path fill-rule="evenodd" clip-rule="evenodd"
              d="M198.822 71.457C190.768 58.158 171.941 48.8286 150 48.8286C128.059 48.8286 109.232 58.158 101.178 71.457H97V85.9143V86.5427H97.0075C97.4869 106.735 121.029 123 150 123C178.971 123 202.513 106.735 202.993 86.5427H203V85.9143V71.457H198.822Z"
              fill="#263246"/>
        <path
            d="M150 48.8286V52.8286V48.8286ZM198.822 71.457L195.4 73.5289L196.568 75.457H198.822V71.457ZM101.178 71.457V75.457H103.432L104.6 73.5289L101.178 71.457ZM97 71.457V67.457H93V71.457H97ZM97 86.5427H93V90.5427H97V86.5427ZM97.0075 86.5427L101.006 86.4478L100.914 82.5427H97.0075V86.5427ZM202.993 86.5427V82.5427H199.086L198.994 86.4478L202.993 86.5427ZM203 86.5427V90.5427H207V86.5427H203ZM203 71.457H207V67.457H203V71.457ZM150 52.8286C171.009 52.8286 188.285 61.7787 195.4 73.5289L202.243 69.3851C193.252 54.5374 172.873 44.8286 150 44.8286V52.8286ZM104.6 73.5289C111.715 61.7787 128.991 52.8286 150 52.8286V44.8286C127.127 44.8286 106.748 54.5374 97.7567 69.3851L104.6 73.5289ZM97 75.457H101.178V67.457H97V75.457ZM101 85.9143V71.457H93V85.9143H101ZM101 86.5427V85.9143H93V86.5427H101ZM97.0075 82.5427H97V90.5427H97.0075V82.5427ZM150 119C136.228 119 123.912 115.128 115.089 109.049C106.249 102.96 101.207 94.909 101.006 86.4478L93.0086 86.6376C93.2871 98.3684 100.256 108.546 110.55 115.637C120.86 122.74 134.801 127 150 127V119ZM198.994 86.4478C198.793 94.909 193.751 102.96 184.911 109.049C176.088 115.128 163.772 119 150 119V127C165.199 127 179.14 122.74 189.45 115.637C199.744 108.546 206.713 98.3684 206.991 86.6377L198.994 86.4478ZM203 82.5427H202.993V90.5427H203V82.5427ZM199 85.9143V86.5427H207V85.9143H199ZM199 71.457V85.9143H207V71.457H199ZM198.822 75.457H203V67.457H198.822V75.457Z"
            fill="#354662" mask="url(#path-9-inside-2)"/>
        <path
            d="M111.5 106.231L111.512 95.7109L118.452 100.111L118.5 111.212C118.5 111.212 116.083 109.932 114.666 108.911C113.352 107.963 111.5 106.231 111.5 106.231Z"
            fill="#586D91"/>
        <path
            d="M150 37C164.276 37 177.114 41.0521 186.33 47.5008C195.552 53.9539 201 62.6768 201 72.0857C201 81.4945 195.552 90.2174 186.33 96.6706C177.114 103.119 164.276 107.171 150 107.171C135.724 107.171 122.886 103.119 113.67 96.6706C104.448 90.2174 99 81.4945 99 72.0857C99 62.6768 104.448 53.9539 113.67 47.5008C122.886 41.0521 135.724 37 150 37Z"
            fill="#1F2633" stroke="#354662" stroke-width="4"/>
        <path d="M185.333 110.429V96.6006L175.869 101.001V116.086L185.333 110.429Z" fill="#354662"/>
        <path d="M170.822 117.343V103.515L165.774 105.401V118.601L170.822 117.343Z" fill="#354662"/>
        <path
            d="M160.974 77.2077C156.853 77.2077 153.607 76.8355 151.236 76.0909C148.837 75.3464 146.762 74.1394 145.012 72.4698C143.262 70.8003 141.667 69.5368 140.228 68.6795C138.76 67.7996 137.151 67.3597 135.401 67.3597C131.139 67.3597 129.008 68.8262 129.008 71.7591C129.008 73.1128 129.629 74.2071 130.871 75.0418C132.113 75.8766 133.792 76.3165 135.909 76.3617L135.909 87.8003C130.264 87.7552 125.875 86.3338 122.742 83.5362C119.581 80.7386 118 76.8129 118 71.7591C118 66.728 119.454 62.8361 122.361 60.0836C125.268 57.3086 129.403 55.921 134.766 55.921C137.109 55.921 139.24 56.2933 141.159 57.0378C143.079 57.7824 145.04 58.9781 147.044 60.6251L151.575 64.5169C152.901 65.6224 154.27 66.3895 155.681 66.8182C157.065 67.2469 158.829 67.4838 160.974 67.5289L160.974 77.2077ZM173.845 78.5952C171.756 78.5952 170.048 77.9974 168.722 76.8016C167.367 75.5833 166.69 74.0717 166.69 72.2668C166.69 70.4619 167.367 68.9615 168.722 67.7658C170.048 66.5475 171.756 65.9383 173.845 65.9383C175.933 65.9383 177.655 66.5475 179.01 67.7658C180.337 68.9615 181 70.4619 181 72.2668C181 74.0717 180.337 75.5833 179.01 76.8016C177.655 77.9974 175.933 78.5952 173.845 78.5952Z"
            fill="#263246"/>
        <path
            d="M160.974 74.215C156.853 74.215 153.607 73.8428 151.236 73.0983C148.837 72.3537 146.762 71.1467 145.012 69.4772C143.262 67.8076 141.667 66.5442 140.228 65.6868C138.76 64.8069 137.151 64.367 135.401 64.367C131.139 64.367 129.008 65.8335 129.008 68.7665C129.008 70.1202 129.629 71.2144 130.871 72.0491C132.113 72.8839 133.792 73.3239 135.909 73.369L135.909 84.8076C130.264 84.7625 125.875 83.3411 122.742 80.5435C119.581 77.7459 118 73.8202 118 68.7665C118 63.7353 119.454 59.8434 122.361 57.0909C125.268 54.3159 129.403 52.9284 134.766 52.9284C137.109 52.9284 139.24 53.3006 141.159 54.0452C143.079 54.7897 145.04 55.9854 147.044 57.6324L151.575 61.5243C152.901 62.6298 154.27 63.3969 155.681 63.8255C157.065 64.2542 158.829 64.4911 160.974 64.5362L160.974 74.215ZM173.845 75.6026C171.756 75.6026 170.048 75.0047 168.722 73.8089C167.367 72.5906 166.69 71.079 166.69 69.2741C166.69 67.4692 167.367 65.9689 168.722 64.7731C170.048 63.5548 171.756 62.9456 173.845 62.9456C175.933 62.9456 177.655 63.5548 179.01 64.7731C180.337 65.9689 181 67.4692 181 69.2741C181 71.079 180.337 72.5906 179.01 73.8089C177.655 75.0047 175.933 75.6026 173.845 75.6026Z"
            fill="#354662"/>
        <mask id="path-16-inside-3" fill="white">
            <path fill-rule="evenodd" clip-rule="evenodd"
                  d="M191.822 50.457C183.768 37.158 164.941 27.8286 143 27.8286C121.059 27.8286 102.232 37.158 94.1783 50.457H90V64.9143V65.5427H90.0075C90.4869 85.7347 114.029 102 143 102C171.971 102 195.513 85.7347 195.993 65.5427H196V64.9143V50.457H191.822Z"/>
        </mask>
        <path fill-rule="evenodd" clip-rule="evenodd"
              d="M191.822 50.457C183.768 37.158 164.941 27.8286 143 27.8286C121.059 27.8286 102.232 37.158 94.1783 50.457H90V64.9143V65.5427H90.0075C90.4869 85.7347 114.029 102 143 102C171.971 102 195.513 85.7347 195.993 65.5427H196V64.9143V50.457H191.822Z"
              fill="#263246"/>
        <path
            d="M143 27.8286V31.8286V27.8286ZM191.822 50.457L188.4 52.5289L189.568 54.457H191.822V50.457ZM94.1783 50.457V54.457H96.4323L97.5998 52.5289L94.1783 50.457ZM90 50.457V46.457H86V50.457H90ZM90 65.5427H86V69.5427H90V65.5427ZM90.0075 65.5427L94.0063 65.4478L93.9136 61.5427H90.0075V65.5427ZM195.993 65.5427V61.5427H192.086L191.994 65.4478L195.993 65.5427ZM196 65.5427V69.5427H200V65.5427H196ZM196 50.457H200V46.457H196V50.457ZM143 31.8286C164.009 31.8286 181.285 40.7787 188.4 52.5289L195.243 48.3851C186.252 33.5374 165.873 23.8286 143 23.8286V31.8286ZM97.5998 52.5289C104.715 40.7787 121.991 31.8286 143 31.8286V23.8286C120.127 23.8286 99.7478 33.5374 90.7567 48.3851L97.5998 52.5289ZM90 54.457H94.1783V46.457H90V54.457ZM94 64.9143V50.457H86V64.9143H94ZM94 65.5427V64.9143H86V65.5427H94ZM90.0075 61.5427H90V69.5427H90.0075V61.5427ZM143 98C129.228 98 116.912 94.1278 108.089 88.0493C99.249 81.96 94.2072 73.909 94.0063 65.4478L86.0086 65.6376C86.2871 77.3684 93.2561 87.5461 103.55 94.6374C113.86 101.74 127.801 106 143 106V98ZM191.994 65.4478C191.793 73.909 186.751 81.96 177.911 88.0493C169.088 94.1278 156.772 98 143 98V106C158.199 106 172.14 101.74 182.45 94.6374C192.744 87.5461 199.713 77.3684 199.991 65.6377L191.994 65.4478ZM196 61.5427H195.993V69.5427H196V61.5427ZM192 64.9143V65.5427H200V64.9143H192ZM192 50.457V64.9143H200V50.457H192ZM191.822 54.457H196V46.457H191.822V54.457Z"
            fill="#354662" mask="url(#path-16-inside-3)"/>
        <path
            d="M104.5 85.2307L104.512 74.7109L111.452 79.1109L111.5 90.2118C111.5 90.2118 109.083 88.9315 107.666 87.9109C106.352 86.9634 104.5 85.2307 104.5 85.2307Z"
            fill="#586D91"/>
        <path
            d="M143 16C157.276 16 170.114 20.0521 179.33 26.5008C188.552 32.9539 194 41.6768 194 51.0857C194 60.4945 188.552 69.2174 179.33 75.6706C170.114 82.1193 157.276 86.1714 143 86.1714C128.724 86.1714 115.886 82.1193 106.67 75.6706C97.4476 69.2174 92 60.4945 92 51.0857C92 41.6768 97.4476 32.9539 106.67 26.5008C115.886 20.0521 128.724 16 143 16Z"
            fill="#1F2633" stroke="#354662" stroke-width="4"/>
        <path d="M178.333 89.4292V75.6006L168.869 80.0006V95.0863L178.333 89.4292Z" fill="#354662"/>
        <path d="M163.822 96.3434V82.5149L158.774 84.4006V97.6006L163.822 96.3434Z" fill="#354662"/>
        <path
            d="M153.974 56.2077C149.853 56.2077 146.607 55.8355 144.236 55.0909C141.837 54.3464 139.762 53.1394 138.012 51.4698C136.262 49.8003 134.667 48.5368 133.228 47.6795C131.76 46.7996 130.151 46.3597 128.401 46.3597C124.139 46.3597 122.008 47.8262 122.008 50.7591C122.008 52.1128 122.629 53.2071 123.871 54.0418C125.113 54.8766 126.792 55.3165 128.909 55.3617L128.909 66.8003C123.264 66.7552 118.875 65.3338 115.742 62.5362C112.581 59.7386 111 55.8129 111 50.7591C111 45.728 112.454 41.8361 115.361 39.0836C118.268 36.3086 122.403 34.921 127.766 34.921C130.109 34.921 132.24 35.2933 134.159 36.0378C136.079 36.7824 138.04 37.9781 140.044 39.6251L144.575 43.5169C145.901 44.6224 147.27 45.3895 148.681 45.8182C150.065 46.2469 151.829 46.4838 153.974 46.5289L153.974 56.2077ZM166.845 57.5952C164.756 57.5952 163.048 56.9974 161.722 55.8016C160.367 54.5833 159.69 53.0717 159.69 51.2668C159.69 49.4619 160.367 47.9615 161.722 46.7658C163.048 45.5475 164.756 44.9383 166.845 44.9383C168.933 44.9383 170.655 45.5475 172.01 46.7658C173.337 47.9615 174 49.4619 174 51.2668C174 53.0717 173.337 54.5833 172.01 55.8016C170.655 56.9974 168.933 57.5952 166.845 57.5952Z"
            fill="#263246"/>
        <path
            d="M153.974 53.215C149.853 53.215 146.607 52.8428 144.236 52.0983C141.837 51.3537 139.762 50.1467 138.012 48.4772C136.262 46.8076 134.667 45.5442 133.228 44.6868C131.76 43.8069 130.151 43.367 128.401 43.367C124.139 43.367 122.008 44.8335 122.008 47.7665C122.008 49.1202 122.629 50.2144 123.871 51.0491C125.113 51.8839 126.792 52.3239 128.909 52.369L128.909 63.8076C123.264 63.7625 118.875 62.3411 115.742 59.5435C112.581 56.7459 111 52.8202 111 47.7665C111 42.7353 112.454 38.8434 115.361 36.0909C118.268 33.3159 122.403 31.9284 127.766 31.9284C130.109 31.9284 132.24 32.3006 134.159 33.0452C136.079 33.7897 138.04 34.9854 140.044 36.6324L144.575 40.5243C145.901 41.6298 147.27 42.3969 148.681 42.8255C150.065 43.2542 151.829 43.4911 153.974 43.5362L153.974 53.215ZM166.845 54.6026C164.756 54.6026 163.048 54.0047 161.722 52.8089C160.367 51.5906 159.69 50.079 159.69 48.2741C159.69 46.4692 160.367 44.9689 161.722 43.7731C163.048 42.5548 164.756 41.9456 166.845 41.9456C168.933 41.9456 170.655 42.5548 172.01 43.7731C173.337 44.9689 174 46.4692 174 48.2741C174 50.079 173.337 51.5906 172.01 52.8089C170.655 54.0047 168.933 54.6026 166.845 54.6026Z"
            fill="#354662"/>
        <mask id="path-23-inside-4" fill="white">
            <path fill-rule="evenodd" clip-rule="evenodd"
                  d="M191.822 36.457C183.768 23.158 164.941 13.8286 143 13.8286C121.059 13.8286 102.232 23.158 94.1783 36.457H90V50.9143V51.5427H90.0075C90.4869 71.7347 114.029 88 143 88C171.971 88 195.513 71.7347 195.993 51.5427H196V50.9143V36.457H191.822Z"/>
        </mask>
        <path fill-rule="evenodd" clip-rule="evenodd"
              d="M191.822 36.457C183.768 23.158 164.941 13.8286 143 13.8286C121.059 13.8286 102.232 23.158 94.1783 36.457H90V50.9143V51.5427H90.0075C90.4869 71.7347 114.029 88 143 88C171.971 88 195.513 71.7347 195.993 51.5427H196V50.9143V36.457H191.822Z"
              fill="#263246"/>
        <path
            d="M143 13.8286V17.8286V13.8286ZM191.822 36.457L188.4 38.5289L189.568 40.457H191.822V36.457ZM94.1783 36.457V40.457H96.4323L97.5998 38.5289L94.1783 36.457ZM90 36.457V32.457H86V36.457H90ZM90 51.5427H86V55.5427H90V51.5427ZM90.0075 51.5427L94.0063 51.4478L93.9136 47.5427H90.0075V51.5427ZM195.993 51.5427V47.5427H192.086L191.994 51.4478L195.993 51.5427ZM196 51.5427V55.5427H200V51.5427H196ZM196 36.457H200V32.457H196V36.457ZM143 17.8286C164.009 17.8286 181.285 26.7787 188.4 38.5289L195.243 34.3851C186.252 19.5374 165.873 9.82861 143 9.82861V17.8286ZM97.5998 38.5289C104.715 26.7787 121.991 17.8286 143 17.8286V9.82861C120.127 9.82861 99.7478 19.5374 90.7567 34.3851L97.5998 38.5289ZM90 40.457H94.1783V32.457H90V40.457ZM94 50.9143V36.457H86V50.9143H94ZM94 51.5427V50.9143H86V51.5427H94ZM90.0075 47.5427H90V55.5427H90.0075V47.5427ZM143 84C129.228 84 116.912 80.1278 108.089 74.0493C99.249 67.96 94.2072 59.909 94.0063 51.4478L86.0086 51.6376C86.2871 63.3684 93.2561 73.5461 103.55 80.6374C113.86 87.7396 127.801 92 143 92V84ZM191.994 51.4478C191.793 59.909 186.751 67.96 177.911 74.0493C169.088 80.1278 156.772 84 143 84V92C158.199 92 172.14 87.7396 182.45 80.6374C192.744 73.5461 199.713 63.3684 199.991 51.6377L191.994 51.4478ZM196 47.5427H195.993V55.5427H196V47.5427ZM192 50.9143V51.5427H200V50.9143H192ZM192 36.457V50.9143H200V36.457H192ZM191.822 40.457H196V32.457H191.822V40.457Z"
            fill="#354662" mask="url(#path-23-inside-4)"/>
        <path
            d="M104.5 71.2307L104.512 60.7109L111.452 65.1109L111.5 76.2118C111.5 76.2118 109.083 74.9315 107.666 73.9109C106.352 72.9634 104.5 71.2307 104.5 71.2307Z"
            fill="#586D91"/>
        <path
            d="M143 1.99996C157.276 1.99996 170.114 6.05208 179.33 12.5008C188.552 18.9539 194 27.6768 194 37.0857C194 46.4945 188.552 55.2174 179.33 61.6706C170.114 68.1193 157.276 72.1714 143 72.1714C128.724 72.1714 115.886 68.1193 106.67 61.6706C97.4476 55.2174 92 46.4945 92 37.0857C92 27.6768 97.4476 18.9539 106.67 12.5008C115.886 6.05208 128.724 1.99996 143 1.99996Z"
            fill="#1F2633" stroke="#354662" stroke-width="4"/>
        <path d="M178.333 75.4292V61.6006L168.869 66.0006V81.0863L178.333 75.4292Z" fill="#354662"/>
        <path d="M163.822 82.3434V68.5149L158.774 70.4006V83.6006L163.822 82.3434Z" fill="#354662"/>
        <path
            d="M153.974 42.2077C149.853 42.2077 146.607 41.8355 144.236 41.0909C141.837 40.3464 139.762 39.1394 138.012 37.4698C136.262 35.8003 134.667 34.5368 133.228 33.6795C131.76 32.7996 130.151 32.3597 128.401 32.3597C124.139 32.3597 122.008 33.8262 122.008 36.7591C122.008 38.1128 122.629 39.2071 123.871 40.0418C125.113 40.8766 126.792 41.3165 128.909 41.3617L128.909 52.8003C123.264 52.7552 118.875 51.3338 115.742 48.5362C112.581 45.7386 111 41.8129 111 36.7591C111 31.728 112.454 27.8361 115.361 25.0836C118.268 22.3086 122.403 20.921 127.766 20.921C130.109 20.921 132.24 21.2933 134.159 22.0378C136.079 22.7824 138.04 23.9781 140.044 25.6251L144.575 29.5169C145.901 30.6224 147.27 31.3895 148.681 31.8182C150.065 32.2469 151.829 32.4838 153.974 32.5289L153.974 42.2077ZM166.845 43.5952C164.756 43.5952 163.048 42.9974 161.722 41.8016C160.367 40.5833 159.69 39.0717 159.69 37.2668C159.69 35.4619 160.367 33.9615 161.722 32.7658C163.048 31.5475 164.756 30.9383 166.845 30.9383C168.933 30.9383 170.655 31.5475 172.01 32.7658C173.337 33.9615 174 35.4619 174 37.2668C174 39.0717 173.337 40.5833 172.01 41.8016C170.655 42.9974 168.933 43.5952 166.845 43.5952Z"
            fill="#263246"/>
        <path
            d="M153.974 39.215C149.853 39.215 146.607 38.8428 144.236 38.0983C141.837 37.3537 139.762 36.1467 138.012 34.4772C136.262 32.8076 134.667 31.5442 133.228 30.6868C131.76 29.8069 130.151 29.367 128.401 29.367C124.139 29.367 122.008 30.8335 122.008 33.7665C122.008 35.1202 122.629 36.2144 123.871 37.0491C125.113 37.8839 126.792 38.3239 128.909 38.369L128.909 49.8076C123.264 49.7625 118.875 48.3411 115.742 45.5435C112.581 42.7459 111 38.8202 111 33.7665C111 28.7353 112.454 24.8434 115.361 22.0909C118.268 19.3159 122.403 17.9284 127.766 17.9284C130.109 17.9284 132.24 18.3006 134.159 19.0452C136.079 19.7897 138.04 20.9854 140.044 22.6324L144.575 26.5243C145.901 27.6298 147.27 28.3969 148.681 28.8255C150.065 29.2542 151.829 29.4911 153.974 29.5362L153.974 39.215ZM166.845 40.6026C164.756 40.6026 163.048 40.0047 161.722 38.8089C160.367 37.5906 159.69 36.079 159.69 34.2741C159.69 32.4692 160.367 30.9689 161.722 29.7731C163.048 28.5548 164.756 27.9456 166.845 27.9456C168.933 27.9456 170.655 28.5548 172.01 29.7731C173.337 30.9689 174 32.4692 174 34.2741C174 36.079 173.337 37.5906 172.01 38.8089C170.655 40.0047 168.933 40.6026 166.845 40.6026Z"
            fill="#354662"/>
        <mask id="path-30-inside-5" fill="white">
            <path fill-rule="evenodd" clip-rule="evenodd"
                  d="M109.046 93.7194C97.7398 83.0475 77.1073 79.0726 55.9594 84.9197C34.8116 90.7667 19.1513 104.776 14.9333 119.74L10.9061 120.854L14.7588 134.788L14.9263 135.394L14.9335 135.392C20.7764 154.726 47.8016 164.129 75.7251 156.409C103.649 148.689 122.005 126.738 117.086 107.148L117.093 107.146L116.926 106.541L113.073 92.606L109.046 93.7194Z"/>
        </mask>
        <path fill-rule="evenodd" clip-rule="evenodd"
              d="M109.046 93.7194C97.7398 83.0475 77.1073 79.0726 55.9594 84.9197C34.8116 90.7667 19.1513 104.776 14.9333 119.74L10.9061 120.854L14.7588 134.788L14.9263 135.394L14.9335 135.392C20.7764 154.726 47.8016 164.129 75.7251 156.409C103.649 148.689 122.005 126.738 117.086 107.148L117.093 107.146L116.926 106.541L113.073 92.606L109.046 93.7194Z"
              fill="#263246"/>
        <path
            d="M55.9594 84.9197L57.0254 88.775L55.9594 84.9197ZM109.046 93.7194L106.3 96.6283L107.939 98.1755L110.112 97.5748L109.046 93.7194ZM14.9333 119.74L15.9992 123.595L18.1717 122.995L18.7833 120.825L14.9333 119.74ZM10.9061 120.854L9.84019 116.998L5.98484 118.064L7.05078 121.92L10.9061 120.854ZM14.9263 135.394L11.0709 136.46L12.1369 140.315L15.9922 139.249L14.9263 135.394ZM14.9335 135.392L18.7624 134.235L17.6324 130.495L13.8675 131.536L14.9335 135.392ZM117.086 107.148L116.02 103.293L112.255 104.334L113.206 108.122L117.086 107.148ZM117.093 107.146L118.159 111.002L122.014 109.936L120.949 106.08L117.093 107.146ZM113.073 92.606L116.928 91.54L115.862 87.6847L112.007 88.7506L113.073 92.606ZM57.0254 88.775C77.275 83.1763 96.3108 87.1991 106.3 96.6283L111.792 90.8106C99.1689 78.8959 76.9396 74.9689 54.8935 81.0643L57.0254 88.775ZM18.7833 120.825C22.5101 107.604 36.7758 94.3737 57.0254 88.775L54.8935 81.0643C32.8474 87.1597 15.7926 101.948 11.0833 118.655L18.7833 120.825ZM11.9721 124.709L15.9992 123.595L13.8674 115.885L9.84019 116.998L11.9721 124.709ZM18.6142 133.722L14.7615 119.788L7.05078 121.92L10.9035 135.854L18.6142 133.722ZM18.7816 134.328L18.6142 133.722L10.9035 135.854L11.0709 136.46L18.7816 134.328ZM13.8675 131.536L13.8603 131.538L15.9922 139.249L15.9994 139.247L13.8675 131.536ZM74.6592 152.554C61.3851 156.224 48.4829 155.773 38.3584 152.266C28.2158 148.753 21.2109 142.336 18.7624 134.235L11.1045 136.549C14.499 147.781 23.9282 155.734 35.7398 159.825C47.5695 163.923 62.1417 164.315 76.7911 160.264L74.6592 152.554ZM113.206 108.122C115.268 116.331 112.554 125.435 105.656 133.659C98.7716 141.869 87.9333 148.884 74.6592 152.554L76.7911 160.264C91.4405 156.214 103.742 148.393 111.786 138.8C119.818 129.222 123.823 117.555 120.966 106.174L113.206 108.122ZM116.027 103.291L116.02 103.293L118.152 111.004L118.159 111.002L116.027 103.291ZM113.07 107.606L113.238 108.212L120.949 106.08L120.781 105.475L113.07 107.606ZM109.218 93.6719L113.07 107.606L120.781 105.475L116.928 91.54L109.218 93.6719ZM110.112 97.5748L114.139 96.4613L112.007 88.7506L107.98 89.8641L110.112 97.5748Z"
            fill="#354662" mask="url(#path-30-inside-5)"/>
        <path
            d="M34.1486 150.506L31.3565 140.363L39.2185 142.754L42.2229 153.441C42.2229 153.441 39.5517 152.851 37.9148 152.245C36.3951 151.682 34.1486 150.506 34.1486 150.506Z"
            fill="#586D91"/>
        <path
            d="M52.8073 73.5187C66.5667 69.7144 80.0207 70.1988 90.6219 73.9583C101.23 77.7205 108.806 84.6762 111.313 93.7448C113.82 102.813 110.894 112.673 103.725 121.35C96.5608 130.022 85.2665 137.348 71.507 141.153C57.7476 144.957 44.2936 144.473 33.6924 140.713C23.0839 136.951 15.5087 129.995 13.0014 120.926C10.494 111.858 13.4201 101.999 20.5893 93.3213C27.7535 84.6498 39.0478 77.323 52.8073 73.5187Z"
            fill="#1F2633" stroke="#354662" stroke-width="4"/>
        <path d="M106.431 134.876L102.746 121.548L94.7963 128.311L98.8164 142.851L106.431 134.876Z" fill="#354662"/>
        <path d="M94.2863 145.408L90.6012 132.079L86.2386 135.242L89.7563 147.965L94.2863 145.408Z" fill="#354662"/>
        <path
            d="M74.099 109.348C70.127 110.446 66.8992 110.953 64.4156 110.867C61.9048 110.789 59.5835 110.178 57.4519 109.035C55.3203 107.892 53.4465 107.1 51.8306 106.657C50.1814 106.2 48.5135 106.205 46.8268 106.671C42.7188 107.807 41.0556 109.788 41.8372 112.615C42.1979 113.92 43.088 114.809 44.5075 115.283C45.927 115.756 47.663 115.733 49.7154 115.212L52.7636 126.237C47.3106 127.698 42.7014 127.498 38.9361 125.636C35.1436 123.782 32.574 120.42 31.2272 115.549C29.8865 110.699 30.2504 106.561 32.319 103.133C34.3816 99.6838 37.9974 97.2445 43.1664 95.8154C45.4244 95.1911 47.5776 94.982 49.626 95.1881C51.6743 95.3942 53.8837 96.024 56.2542 97.0773L61.6577 99.6212C63.231 100.333 64.7549 100.708 66.2293 100.745C67.6766 100.789 69.4401 100.548 71.5197 100.019L74.099 109.348ZM86.8743 107.256C84.8611 107.812 83.0559 107.691 81.4586 106.892C79.828 106.079 78.7723 104.802 78.2913 103.063C77.8103 101.323 78.0634 99.6966 79.0506 98.183C80.0046 96.6553 81.4882 95.6131 83.5014 95.0565C85.5145 94.4998 87.3364 94.6281 88.9669 95.4414C90.5642 96.2403 91.6033 97.5097 92.0843 99.2493C92.5653 100.989 92.3288 102.623 91.3748 104.15C90.3876 105.664 88.8874 106.699 86.8743 107.256Z"
            fill="#263246"/>
        <path
            d="M73.3016 106.464C69.3297 107.562 66.1019 108.068 63.6182 107.982C61.1074 107.904 58.7862 107.293 56.6545 106.151C54.5229 105.008 52.6491 104.215 51.0332 103.772C49.384 103.315 47.7161 103.32 46.0294 103.786C41.9214 104.922 40.2582 106.903 41.0398 109.73C41.4006 111.035 42.2907 111.924 43.7102 112.398C45.1296 112.872 46.8656 112.848 48.918 112.327L51.9662 123.352C46.5132 124.813 41.904 124.613 38.1387 122.751C34.3462 120.897 31.7766 117.535 30.4298 112.664C29.0891 107.815 29.453 103.676 31.5217 100.248C33.5843 96.799 37.2001 94.3597 42.369 92.9306C44.6271 92.3063 46.7803 92.0972 48.8286 92.3033C50.877 92.5094 53.0864 93.1392 55.4568 94.1926L60.8604 96.7364C62.4336 97.4484 63.9575 97.823 65.432 97.86C66.8793 97.9046 68.6427 97.6629 70.7223 97.1347L73.3016 106.464ZM86.0769 104.371C84.0637 104.928 82.2585 104.806 80.6612 104.007C79.0307 103.194 77.9749 101.918 77.494 100.178C77.013 98.4384 77.2661 96.8118 78.2533 95.2983C79.2072 93.7705 80.6908 92.7283 82.704 92.1717C84.7172 91.6151 86.539 91.7434 88.1695 92.5566C89.7668 93.3556 90.806 94.6249 91.2869 96.3645C91.7679 98.1042 91.5314 99.7379 90.5775 101.266C89.5903 102.779 88.0901 103.814 86.0769 104.371Z"
            fill="#354662"/>
        <mask id="path-37-inside-6" fill="white">
            <path fill-rule="evenodd" clip-rule="evenodd"
                  d="M224.167 138.632C234.081 126.656 236.706 105.808 229.495 85.0855C222.285 64.3627 207.287 49.6468 192.08 46.4109L190.707 42.4647L177.053 47.2155L176.459 47.422L176.462 47.4291C157.549 54.5172 149.923 82.0967 159.443 109.459C168.963 136.821 192.061 153.711 211.29 147.528L211.292 147.535L211.886 147.329L225.54 142.578L224.167 138.632Z"/>
        </mask>
        <path fill-rule="evenodd" clip-rule="evenodd"
              d="M224.167 138.632C234.081 126.656 236.706 105.808 229.495 85.0855C222.285 64.3627 207.287 49.6468 192.08 46.4109L190.707 42.4647L177.053 47.2155L176.459 47.422L176.462 47.4291C157.549 54.5172 149.923 82.0967 159.443 109.459C168.963 136.821 192.061 153.711 211.29 147.528L211.292 147.535L211.886 147.329L225.54 142.578L224.167 138.632Z"
              fill="#263246"/>
        <path
            d="M229.495 85.0855L225.718 86.3999L229.495 85.0855ZM224.167 138.632L221.086 136.081L219.648 137.817L220.389 139.946L224.167 138.632ZM192.08 46.4109L188.303 47.7254L189.043 49.8542L191.248 50.3233L192.08 46.4109ZM190.707 42.4647L194.485 41.1503L193.171 37.3724L189.393 38.6869L190.707 42.4647ZM176.459 47.422L175.145 43.6442L171.367 44.9586L172.682 48.7365L176.459 47.422ZM176.462 47.4291L177.866 51.1747L181.523 49.8039L180.24 46.1146L176.462 47.4291ZM211.29 147.528L215.068 146.214L213.784 142.525L210.065 143.72L211.29 147.528ZM211.292 147.535L207.514 148.85L208.829 152.628L212.607 151.313L211.292 147.535ZM225.54 142.578L226.854 146.356L230.632 145.042L229.318 141.264L225.54 142.578ZM225.718 86.3999C232.621 106.243 229.845 125.5 221.086 136.081L227.248 141.183C238.317 127.812 240.79 105.374 233.273 83.771L225.718 86.3999ZM191.248 50.3233C204.684 53.1824 218.814 66.5573 225.718 86.3999L233.273 83.771C225.757 62.1681 209.891 46.1112 192.913 42.4985L191.248 50.3233ZM186.93 43.7792L188.303 47.7254L195.858 45.0965L194.485 41.1503L186.93 43.7792ZM178.367 50.9934L192.022 46.2426L189.393 38.6869L175.738 43.4377L178.367 50.9934ZM177.774 51.1999L178.367 50.9934L175.738 43.4377L175.145 43.6442L177.774 51.1999ZM180.24 46.1146L180.237 46.1076L172.682 48.7365L172.684 48.7435L180.24 46.1146ZM163.221 108.145C158.695 95.1372 158.305 82.2331 161.147 71.9019C163.993 61.5522 169.94 54.1449 177.866 51.1747L175.058 43.6835C164.07 47.8014 156.748 57.7278 153.433 69.7805C150.113 81.8517 150.671 96.4184 155.665 110.773L163.221 108.145ZM210.065 143.72C202.008 146.311 192.747 144.195 184.091 137.847C175.451 131.511 167.747 121.152 163.221 108.145L155.665 110.773C160.66 125.128 169.265 136.895 179.36 144.299C189.441 151.691 201.343 154.928 212.514 151.336L210.065 143.72ZM215.07 146.221L215.068 146.214L207.512 148.843L207.514 148.85L215.07 146.221ZM210.571 143.551L209.978 143.758L212.607 151.313L213.2 151.107L210.571 143.551ZM224.226 138.8L210.571 143.551L213.2 151.107L226.854 146.356L224.226 138.8ZM220.389 139.946L221.762 143.893L229.318 141.264L227.945 137.317L220.389 139.946Z"
            fill="#354662" mask="url(#path-37-inside-6)"/>
        <path
            d="M162.63 67.5863L172.57 64.1405L170.695 72.1414L160.226 75.8344C160.226 75.8344 160.641 73.1305 161.14 71.4577C161.602 69.9046 162.63 67.5863 162.63 67.5863Z"
            fill="#586D91"/>
        <path
            d="M240.668 81.1983C245.359 94.6812 245.751 108.138 242.688 118.961C239.624 129.792 233.176 137.804 224.29 140.896C215.403 143.987 205.375 141.709 196.249 135.119C187.13 128.534 179.084 117.74 174.393 104.257C169.702 90.7745 169.31 77.3175 172.372 66.4942C175.437 55.6635 181.885 47.6519 190.771 44.5601C199.658 41.4683 209.686 43.7469 218.812 50.3365C227.931 56.9216 235.977 67.7154 240.668 81.1983Z"
            fill="#1F2633" stroke="#354662" stroke-width="4"/>
        <path d="M182.927 138.699L195.988 134.155L188.722 126.662L174.474 131.619L182.927 138.699Z" fill="#354662"/>
        <path d="M171.628 127.265L184.689 122.721L181.249 118.573L168.782 122.911L171.628 127.265Z" fill="#354662"/>
        <path
            d="M206.299 104.775C204.945 100.883 204.23 97.6952 204.154 95.2113C204.068 92.7007 204.527 90.3446 205.528 88.1432C206.53 85.9418 207.199 84.0204 207.536 82.3791C207.885 80.7037 207.772 79.0396 207.197 77.3868C205.796 73.3614 203.711 71.8306 200.941 72.7944C199.662 73.2392 198.833 74.1853 198.452 75.6326C198.072 77.0799 198.208 78.8106 198.861 80.8248L188.058 84.5836C186.246 79.2372 186.146 74.6247 187.758 70.7463C189.362 66.8413 192.55 64.0584 197.323 62.3977C202.075 60.7444 206.228 60.8384 209.783 62.6797C213.36 64.5136 216.029 67.9631 217.791 73.0281C218.561 75.2408 218.91 77.3758 218.837 79.4332C218.765 81.4907 218.28 83.7363 217.383 86.1703L215.196 91.7279C214.588 93.3441 214.313 94.8891 214.372 96.3629C214.422 97.81 214.778 99.554 215.44 101.595L206.299 104.775ZM209.218 117.388C208.531 115.415 208.535 113.606 209.228 111.96C209.934 110.28 211.139 109.143 212.844 108.55C214.548 107.957 216.188 108.104 217.762 108.99C219.349 109.843 220.486 111.256 221.172 113.228C221.858 115.201 221.849 117.027 221.143 118.707C220.45 120.353 219.251 121.473 217.546 122.066C215.841 122.659 214.196 122.529 212.609 121.677C211.035 120.79 209.904 119.36 209.218 117.388Z"
            fill="#263246"/>
        <path
            d="M209.125 103.792C207.771 99.8999 207.056 96.7118 206.98 94.2279C206.895 91.7173 207.353 89.3612 208.355 87.1598C209.357 84.9584 210.026 83.037 210.363 81.3957C210.711 79.7203 210.598 78.0562 210.023 76.4034C208.623 72.378 206.537 70.8472 203.767 71.811C202.489 72.2558 201.659 73.2019 201.279 74.6492C200.899 76.0965 201.035 77.8272 201.688 79.8414L190.885 83.6002C189.072 78.2538 188.972 73.6413 190.585 69.7629C192.188 65.8579 195.377 63.075 200.15 61.4143C204.902 59.761 209.055 59.855 212.61 61.6963C216.186 63.5302 218.856 66.9797 220.618 72.0447C221.388 74.2574 221.736 76.3924 221.664 78.4498C221.592 80.5073 221.107 82.7529 220.21 85.1869L218.023 90.7445C217.415 92.3607 217.14 93.9057 217.199 95.3795C217.249 96.8266 217.604 98.5706 218.267 100.611L209.125 103.792ZM212.045 116.404C211.358 114.431 211.362 112.622 212.055 110.976C212.761 109.296 213.966 108.16 215.67 107.567C217.375 106.974 219.015 107.12 220.589 108.007C222.176 108.86 223.312 110.272 223.999 112.245C224.685 114.218 224.675 116.044 223.97 117.724C223.277 119.37 222.077 120.489 220.373 121.082C218.668 121.676 217.023 121.546 215.436 120.693C213.861 119.807 212.731 118.377 212.045 116.404Z"
            fill="#354662"/>
    </g>
    <defs>
        <clipPath id="clip0">
            <rect width="260" height="169" fill="white"/>
        </clipPath>
    </defs>
</svg>
