<svg width="24" height="24" viewBox="0 0 24 24" fill="none" xmlns="http://www.w3.org/2000/svg">
<path d="M17 14C18.1046 14 19 13.1046 19 12C19 10.8954 18.1046 10 17 10C15.8954 10 15 10.8954 15 12C15 13.1046 15.8954 14 17 14Z" stroke="#4B607E" stroke-width="2" stroke-linecap="round"/>
<path d="M12 8C13.1046 8 14 7.10457 14 6C14 4.89543 13.1046 4 12 4C10.8954 4 10 4.89543 10 6C10 7.10457 10.8954 8 12 8Z" stroke="#4B607E" stroke-width="2" stroke-linecap="round"/>
<path d="M7 20C8.10457 20 9 19.1046 9 18C9 16.8954 8.10457 16 7 16C5.89543 16 5 16.8954 5 18C5 19.1046 5.89543 20 7 20Z" stroke="#4B607E" stroke-width="2" stroke-linecap="round"/>
<path d="M14 6H22" stroke="#4B607E" stroke-width="2" stroke-linecap="round"/>
<path d="M2 6H10" stroke="#4B607E" stroke-width="2" stroke-linecap="round"/>
<path d="M2 12H15" stroke="#4B607E" stroke-width="2" stroke-linecap="round"/>
<path d="M19 12H22" stroke="#4B607E" stroke-width="2" stroke-linecap="round"/>
<path d="M9 18H22" stroke="#4B607E" stroke-width="2" stroke-linecap="round"/>
<path d="M2 18H5" stroke="#4B607E" stroke-width="2" stroke-linecap="round"/>
</svg>
