<svg width="24" height="24" viewBox="0 0 24 24" fill="none" xmlns="http://www.w3.org/2000/svg">
<path d="M11 19C12.775 18.9996 14.4988 18.4054 15.897 17.312L20.293 21.708L21.707 20.294L17.311 15.898C18.405 14.4997 18.9996 12.7754 19 11C19 6.589 15.411 3 11 3C6.589 3 3 6.589 3 11C3 15.411 6.589 19 11 19ZM11 5C14.309 5 17 7.691 17 11C17 14.309 14.309 17 11 17C7.691 17 5 14.309 5 11C5 7.691 7.691 5 11 5Z" fill="#4B607E"/>
<path d="M12.4121 9.58597C12.7911 9.96597 13.0001 10.4679 13.0001 10.9999H15.0001C15.001 10.4744 14.8977 9.95386 14.6961 9.46845C14.4946 8.98304 14.1989 8.54239 13.8261 8.17196C12.3121 6.65996 9.68707 6.65996 8.17407 8.17196L9.58607 9.58797C10.3461 8.82997 11.6561 8.83197 12.4121 9.58597Z" fill="#4B607E"/>
</svg>
